<mxfile host="65bd71144e">
    <diagram id="LtgHvKC1j_XU8B3SbyHI" name="Page-1">
        <mxGraphModel dx="597" dy="315" grid="1" gridSize="10" guides="1" tooltips="1" connect="1" arrows="1" fold="1" page="1" pageScale="1" pageWidth="850" pageHeight="1100" math="0" shadow="0">
            <root>
                <mxCell id="0"/>
                <mxCell id="1" parent="0"/>
                <mxCell id="4" value="" style="edgeStyle=none;orthogonalLoop=1;jettySize=auto;html=1;endSize=15;" parent="1" edge="1">
                    <mxGeometry width="100" relative="1" as="geometry">
                        <mxPoint x="30" y="284.5" as="sourcePoint"/>
                        <mxPoint x="130" y="284.5" as="targetPoint"/>
                        <Array as="points"/>
                    </mxGeometry>
                </mxCell>
                <mxCell id="5" value="&lt;font style=&quot;font-size: 20px;&quot;&gt;head&lt;/font&gt;" style="edgeLabel;html=1;align=center;verticalAlign=middle;resizable=0;points=[];" parent="4" vertex="1" connectable="0">
                    <mxGeometry x="-0.52" y="1" relative="1" as="geometry">
                        <mxPoint as="offset"/>
                    </mxGeometry>
                </mxCell>
                <mxCell id="8" value="" style="group;strokeColor=default;perimeterSpacing=1;imageWidth=22;" parent="1" vertex="1" connectable="0">
                    <mxGeometry x="130" y="260" width="132" height="50" as="geometry"/>
                </mxCell>
                <mxCell id="2" value="data" style="rounded=1;whiteSpace=wrap;html=1;container=0;" parent="8" vertex="1">
                    <mxGeometry width="52.94117647058823" height="50" as="geometry"/>
                </mxCell>
                <mxCell id="3" value="next" style="rounded=1;whiteSpace=wrap;html=1;container=0;" parent="8" vertex="1">
                    <mxGeometry x="79.41176470588235" width="52.94117647058823" height="50" as="geometry"/>
                </mxCell>
                <mxCell id="12" style="edgeStyle=none;html=1;fontSize=20;endSize=15;exitX=1;exitY=0.5;exitDx=0;exitDy=0;entryX=0;entryY=0.5;entryDx=0;entryDy=0;" parent="1" source="3" target="14" edge="1">
                    <mxGeometry relative="1" as="geometry">
                        <mxPoint x="320" y="285" as="targetPoint"/>
                        <mxPoint x="280" y="285" as="sourcePoint"/>
                    </mxGeometry>
                </mxCell>
                <mxCell id="13" value="" style="group;strokeColor=default;perimeterSpacing=1;imageWidth=22;" parent="1" vertex="1" connectable="0">
                    <mxGeometry x="320" y="260" width="132" height="50" as="geometry"/>
                </mxCell>
                <mxCell id="14" value="data" style="rounded=1;whiteSpace=wrap;html=1;container=0;" parent="13" vertex="1">
                    <mxGeometry width="52.94117647058823" height="50" as="geometry"/>
                </mxCell>
                <mxCell id="15" value="next" style="rounded=1;whiteSpace=wrap;html=1;container=0;" parent="13" vertex="1">
                    <mxGeometry x="79.41176470588235" width="52.94117647058823" height="50" as="geometry"/>
                </mxCell>
                <mxCell id="16" value="" style="group;strokeColor=default;perimeterSpacing=1;imageWidth=22;" parent="1" vertex="1" connectable="0">
                    <mxGeometry x="500" y="260" width="132" height="50" as="geometry"/>
                </mxCell>
                <mxCell id="17" value="data" style="rounded=1;whiteSpace=wrap;html=1;container=0;" parent="16" vertex="1">
                    <mxGeometry width="52.94117647058823" height="50" as="geometry"/>
                </mxCell>
                <mxCell id="18" value="next" style="rounded=1;whiteSpace=wrap;html=1;container=0;" parent="16" vertex="1">
                    <mxGeometry x="79.41176470588235" width="52.94117647058823" height="50" as="geometry"/>
                </mxCell>
                <mxCell id="19" style="edgeStyle=none;html=1;exitX=1;exitY=0.5;exitDx=0;exitDy=0;fontSize=20;endSize=15;entryX=0;entryY=0.5;entryDx=0;entryDy=0;" parent="1" source="15" target="17" edge="1">
                    <mxGeometry relative="1" as="geometry">
                        <mxPoint x="500" y="285" as="targetPoint"/>
                    </mxGeometry>
                </mxCell>
                <mxCell id="20" value="" style="edgeStyle=none;orthogonalLoop=1;jettySize=auto;html=1;endSize=15;" parent="1" edge="1">
                    <mxGeometry width="100" relative="1" as="geometry">
                        <mxPoint x="632" y="284.5" as="sourcePoint"/>
                        <mxPoint x="732" y="284.5" as="targetPoint"/>
                        <Array as="points"/>
                    </mxGeometry>
                </mxCell>
                <mxCell id="21" value="&lt;font style=&quot;font-size: 20px;&quot;&gt;null&lt;/font&gt;" style="edgeLabel;html=1;align=center;verticalAlign=middle;resizable=0;points=[];" parent="20" vertex="1" connectable="0">
                    <mxGeometry x="-0.52" y="1" relative="1" as="geometry">
                        <mxPoint x="19" as="offset"/>
                    </mxGeometry>
                </mxCell>
            </root>
        </mxGraphModel>
    </diagram>
</mxfile>